<svg id="Layer_1" data-name="Layer 1" xmlns="http://www.w3.org/2000/svg" viewBox="0 0 488.91 323.52"><defs><style>.cls-1{fill:#00569f;}.cls-2{fill:#0079ff;}</style></defs><path class="cls-1" d="M78.05,125.2a11.71,11.71,0,0,1-5.27,4.14c-23.24,9.94-44.47,90.93-44.47,90.93s-21.81,75-22.73,112h0c0,.38,0,.66,0,.66-.68,39.63,13.26,57.78,13.26,57.78,15.2,19.79,43.06,20.95,44.6,21,34.59.95,70.95-33.44,85.53-86.46l209.93-1.68c6.19,52.3,40.37,87.29,72.81,87.29,23.71,0,41.63-18.68,44.21-21.44C501.5,362,493.41,325.22,492.65,322a667.52,667.52,0,0,0-18.47-85.82,668.75,668.75,0,0,0-38-101.28,25.85,25.85,0,0,0-11.61-7.07c-2.14-.57-3.29-.51-4.49-1.67-3.54-3.4-1.9-11.87-1.9-11.87C396.1,96.8,362.24,87.24,338,88.32l-17.31,16.35-137.52-1.11L166.85,89.83c-33.38-3.52-68.52,10.65-87.3,25.21C80.05,117.86,80.26,121.89,78.05,125.2Z" transform="translate(-5.54 -88.24)"/><circle class="cls-2" cx="192.36" cy="178.62" r="26.88"/><circle class="cls-2" cx="284.77" cy="178.12" r="26.88"/><rect class="cls-2" x="120.98" y="58.38" width="17.78" height="68.54"/><rect class="cls-2" x="126.53" y="146.62" width="17.78" height="68.54" transform="translate(-51.02 228.07) rotate(-90)"/><circle class="cls-2" cx="367.27" cy="61.48" r="12.28"/><circle class="cls-2" cx="339.12" cy="90.64" r="12.28"/><circle class="cls-2" cx="395.42" cy="86.96" r="12.28"/><circle class="cls-2" cx="367.27" cy="116.12" r="12.28"/></svg>